<?xml version="1.0" encoding="utf-8"?>
<!-- Generator: Adobe Illustrator 28.0.0, SVG Export Plug-In . SVG Version: 6.00 Build 0)  -->
<svg version="1.1" id="Camada_1" xmlns="http://www.w3.org/2000/svg" xmlns:xlink="http://www.w3.org/1999/xlink" x="0px" y="0px"
	 viewBox="0 0 1105.13 333.62" style="enable-background:new 0 0 1105.13 333.62;" xml:space="preserve">
<style type="text/css">
	.st0{fill:#012839;}
	.st1{fill:#0048D8;}
	.st2{fill:#FFFFFF;}
	.st3{fill:#1D1D1B;}
	.st4{fill:#FFFFFF;stroke:#FFFFFF;stroke-width:0.9361;stroke-miterlimit:10;}
	.st5{fill:#1D1D1B;stroke:#FFFFFF;stroke-width:0.9361;stroke-miterlimit:10;}
</style>
<g>
	<g>
		<g>
			<path class="st2" d="M353.39,252.01v-16.16h-7.75v-2.68h19.29v2.68h-7.67v16.16H353.39z"/>
			<path class="st2" d="M372.94,252.01v-18.84h20.15v2.68h-16.24v5.44h9.89v2.54h-9.89v5.5h16.24v2.68H372.94z"/>
			<path class="st2" d="M407.99,252.01c-4.99,0-6.67-0.8-6.67-4.5v-9.83c0-3.68,1.68-4.5,6.67-4.5h13.39v2.68h-12.37
				c-2.82,0-3.79,0.57-3.79,2.62v8.27c0,2.05,1.03,2.59,3.79,2.59h12.37v2.68H407.99z"/>
			<path class="st2" d="M446.63,252.01l-13.05-13.74v13.74h-3.7v-18.84h4.1l12.77,14.05v-14.05h3.73v18.84H446.63z"/>
			<path class="st2" d="M465.8,252.01c-4.99,0-6.64-0.77-6.64-4.5v-9.83c0-3.76,1.71-4.5,6.64-4.5h8.81c4.99,0,6.7,0.74,6.7,4.5
				v9.83c0,3.76-1.71,4.5-6.7,4.5H465.8z M477.46,238.47c0-2.14-0.94-2.62-3.85-2.62h-6.75c-2.85,0-3.82,0.46-3.82,2.62v8.27
				c0,2.08,0.86,2.59,3.82,2.59h6.75c2.91,0,3.85-0.48,3.85-2.59V238.47z"/>
			<path class="st2" d="M489.94,252.01v-18.84h3.9v16.16h11.8v2.68H489.94z"/>
			<path class="st2" d="M519.74,252.01c-4.99,0-6.64-0.77-6.64-4.5v-9.83c0-3.76,1.71-4.5,6.64-4.5h8.81c4.99,0,6.7,0.74,6.7,4.5
				v9.83c0,3.76-1.71,4.5-6.7,4.5H519.74z M531.4,238.47c0-2.14-0.94-2.62-3.85-2.62h-6.75c-2.85,0-3.82,0.46-3.82,2.62v8.27
				c0,2.08,0.86,2.59,3.82,2.59h6.75c2.91,0,3.85-0.48,3.85-2.59V238.47z"/>
			<path class="st2" d="M550.43,252.01c-5.07,0-6.67-0.86-6.67-4.5v-9.83c0-3.59,1.57-4.5,6.67-4.5h14.19v2.68h-13.17
				c-3.02,0-3.85,0.57-3.85,2.62v8.27c0,2.05,0.88,2.59,3.85,2.59h9.43v-5.47h-8.49v-2.65h12.23v10.8H550.43z"/>
			<path class="st2" d="M573.37,252.01v-18.84h3.88v18.84H573.37z"/>
			<path class="st2" d="M601.84,248.25h-10.94l-1.62,3.76h-4.27l8.86-18.84h4.9l8.86,18.84h-4.13L601.84,248.25z M592.03,245.65
				h8.66l-4.36-9.89L592.03,245.65z"/>
			<path class="st2" d="M629.79,252.01v-18.84h20.15v2.68h-16.24v5.44h9.89v2.54h-9.89v5.5h16.24v2.68H629.79z"/>
			<path class="st2" d="M680,252.01v-13.85l-7.32,13.85h-3.51l-7.32-13.85v13.85h-3.56v-18.84h4.39l8.38,15.02l8.44-15.02h4.1v18.84
				H680z"/>
			<path class="st2" d="M710.74,245.31v6.7h-3.9v-18.84H721c5.04,0,6.7,0.77,6.7,4.5v3.13c0,3.76-1.74,4.5-6.7,4.5H710.74z
				 M723.82,238.44c0-2.05-0.86-2.59-3.51-2.59h-9.57v6.87h9.57c2.65,0,3.51-0.51,3.51-2.62V238.44z"/>
			<path class="st2" d="M748.55,248.25h-10.94l-1.62,3.76h-4.27l8.86-18.84h4.9l8.86,18.84h-4.13L748.55,248.25z M738.75,245.65
				h8.66l-4.36-9.89L738.75,245.65z"/>
			<path class="st2" d="M767.7,252.01c-5.07,0-6.67-0.86-6.67-4.5v-9.83c0-3.59,1.57-4.5,6.67-4.5h14.19v2.68h-13.17
				c-3.02,0-3.85,0.57-3.85,2.62v8.27c0,2.05,0.88,2.59,3.85,2.59h9.43v-5.47h-8.49v-2.65h12.23v10.8H767.7z"/>
			<path class="st2" d="M806.42,248.25h-10.94l-1.62,3.76h-4.27l8.86-18.84h4.9l8.86,18.84h-4.13L806.42,248.25z M796.62,245.65
				h8.66l-4.36-9.89L796.62,245.65z"/>
			<path class="st2" d="M841.64,252.01v-13.85l-7.33,13.85h-3.5l-7.32-13.85v13.85h-3.56v-18.84h4.39l8.38,15.02l8.44-15.02h4.1
				v18.84H841.64z"/>
			<path class="st2" d="M854.03,252.01v-18.84h20.15v2.68h-16.24v5.44h9.89v2.54h-9.89v5.5h16.24v2.68H854.03z"/>
			<path class="st2" d="M899.29,252.01l-13.05-13.74v13.74h-3.7v-18.84h4.1l12.77,14.05v-14.05h3.73v18.84H899.29z"/>
			<path class="st2" d="M918.89,252.01v-16.16h-7.75v-2.68h19.29v2.68h-7.67v16.16H918.89z"/>
			<path class="st2" d="M944.31,252.01c-4.99,0-6.64-0.77-6.64-4.5v-9.83c0-3.76,1.71-4.5,6.64-4.5h8.8c4.99,0,6.7,0.74,6.7,4.5
				v9.83c0,3.76-1.71,4.5-6.7,4.5H944.31z M955.96,238.47c0-2.14-0.94-2.62-3.85-2.62h-6.75c-2.85,0-3.82,0.46-3.82,2.62v8.27
				c0,2.08,0.86,2.59,3.82,2.59h6.75c2.91,0,3.85-0.48,3.85-2.59V238.47z"/>
			<path class="st2" d="M968.21,252.01v-2.68h14.76c1.82,0,2.34-0.57,2.34-2.05v-1.57c0-1.2-0.68-1.82-2.08-1.82h-10.57
				c-3.05,0-4.62-1.37-4.62-3.59v-3.08c0-2.93,1.03-4.05,5.27-4.05h14.45v2.68h-13.68c-1.88,0-2.39,0.6-2.39,2.05v1.51
				c0,1.2,0.68,1.82,2.14,1.82h10.49c3.19,0,4.65,1.42,4.65,3.87v2.82c0,2.88-1.23,4.07-5.13,4.07H968.21z"/>
		</g>
		<g>
			<g>
				<path class="st2" d="M368.41,183.44c-19.83,0-26.52-2.83-26.52-17.11v-21.42c0-14.05,7.48-17.11,26.52-17.11h39.78v-19.27h15.41
					v74.91H368.41z M408.19,138.45H370.9c-9.63,0-13.6,2.04-13.6,9.29v16.21c0,7.14,3.4,8.84,13.6,8.84h37.28V138.45z"/>
				<path class="st2" d="M435.83,183.44V127.8h15.64v55.64H435.83z M436.29,119.98v-13.83h15.07v13.83H436.29z"/>
				<path class="st2" d="M499.97,206.68v-10.65h19.27c6.91,0,10.09-1.81,10.09-9.07v-4.99h-39.78c-19.95,0-26.4-2.95-26.4-17.23
					v-19.83c0-14.05,6.69-17.11,26.4-17.11h55.19v61.53c0,14.62-6.46,17.34-20.28,17.34H499.97z M529.32,138.45h-37.96
					c-9.86,0-12.81,1.47-12.81,8.95v15.41c0,7.14,3.29,8.95,12.81,8.95h37.96V138.45z"/>
				<path class="st2" d="M557.08,183.44V127.8h15.64v55.64H557.08z M557.54,119.98v-13.83h15.07v13.83H557.54z"/>
				<path class="st2" d="M611.47,183.44c-19.72,0-26.52-3.29-26.52-17.11V111.6h15.53v16.21h24.14v10.09h-24.14v26.06
					c0,7.25,3.17,8.84,13.15,8.84h17.11v10.65H611.47z"/>
				<path class="st2" d="M664.73,183.44c-19.49,0-26.74-2.72-26.74-17.11v-21.42c0-14.05,7.25-17.11,26.74-17.11h31.16
					c19.49,0,26.74,3.06,26.74,17.11v21.42c0,14.39-7.25,17.11-26.74,17.11H664.73z M693.97,172.79c9.75,0,13.14-1.36,13.14-8.84
					v-16.55c0-6.91-3.74-8.95-13.14-8.95h-27.31c-9.52,0-13.15,2.04-13.15,8.95v16.55c0,7.48,3.29,8.84,13.15,8.84H693.97z"/>
			</g>
			<g>
				<path class="st2" d="M795.84,159.21c21.96,0,28.37-3.44,31.19-16.74l3.06-14.73c0.47-2.46,0.76-4.32,0.76-5.93
					c0-7.82-5.67-10.2-24.25-10.2h-59.66l-15.24,71.96h25.65l5.1-24.36H795.84z M769.15,127.7h28.06c1.57,0,6.35,0,6.35,4.76
					c0,0.71-0.13,1.38-0.25,1.97l-0.57,2.85c-0.96,4.67-3.2,6.4-8.25,6.4h-28.67L769.15,127.7z"/>
				<path class="st2" d="M922.42,139.04c0-7.98-5.89-10.54-24.25-10.54h-55.13l-3,14.05h47.47c2.97,0,7.93,0,7.93,4.65
					c0,0.6-0.13,1.25-0.26,1.88l-0.03,0.13l-0.65,2.19h-32.49c-24.31,0-28.13,2.88-30.4,14.34l-0.57,2.84
					c-0.44,1.98-0.65,3.69-0.65,5.26c0,7.47,5.59,9.74,23.91,9.74h59.21l8.25-38.95C922.2,142.61,922.42,140.68,922.42,139.04z
					 M890.87,169.41h-28.62c-1.7,0-5.67,0-5.67-3.63c0-0.28,0-0.69,0.19-1.26l0.2-0.8c0.78-3.74,4.23-4.17,6.75-4.17h29.25
					L890.87,169.41z"/>
				<path class="st2" d="M1022.48,128.5h-25.66L989,165.44h-27.37c-4.21,0-4.53-2.95-4.53-3.85c0-0.39,0-0.97,0.16-1.6l6.64-31.49
					h-25.54l-7.57,35.89c-0.52,2.17-0.76,4.09-0.76,5.93c0,8,5.39,10.31,24.02,10.31h31.73l-1.05,5.06
					c-0.49,2.17-1.64,5.03-5.98,5.03h-13.65l-3.45,16.09h23.45c14.14,0,21.4-2.52,24.4-16.85L1022.48,128.5z"/>
			</g>
		</g>
	</g>
	<g>
		<path class="st2" d="M150.09,128.64h67.79V81h-25.51v31.89h-65.83c-31.51,0-43.89,5.06-43.89,28.32v35.45
			c0,23.63,11.07,28.32,43.89,28.32h10.82v-63.61C137.36,134.34,143.06,128.64,150.09,128.64z"/>
		<path class="st2" d="M229.39,128.64h-11v65.59c0,5.94-4.81,10.75-10.75,10.75h-69.59v47.64h25.51v-31.89h65.83
			c31.51,0,43.89-5.06,43.89-28.32v-35.45C273.28,133.33,262.21,128.64,229.39,128.64z"/>
	</g>
</g>
</svg>
